<mxfile host="app.diagrams.net" modified="2021-04-09T09:56:33.992Z" agent="5.0 (Windows NT 10.0; Win64; x64) AppleWebKit/537.36 (KHTML, like Gecko) Chrome/89.0.4389.82 Safari/537.36" etag="QWbbLiY67_CnieX9d_gC" version="14.5.8" type="github">
  <diagram id="aoj3swG1tekXxO3n4QQ1" name="Page-1">
    <mxGraphModel dx="1422" dy="762" grid="1" gridSize="10" guides="1" tooltips="1" connect="1" arrows="1" fold="1" page="1" pageScale="1" pageWidth="850" pageHeight="1100" math="0" shadow="0">
      <root>
        <mxCell id="0" />
        <mxCell id="1" parent="0" />
        <mxCell id="z3XUsXF2Qn8Yz3vl9ZlV-6" value="" style="edgeStyle=orthogonalEdgeStyle;rounded=0;orthogonalLoop=1;jettySize=auto;html=1;" edge="1" parent="1" source="z3XUsXF2Qn8Yz3vl9ZlV-1" target="z3XUsXF2Qn8Yz3vl9ZlV-5">
          <mxGeometry relative="1" as="geometry" />
        </mxCell>
        <mxCell id="z3XUsXF2Qn8Yz3vl9ZlV-1" value="User" style="rounded=1;whiteSpace=wrap;html=1;" vertex="1" parent="1">
          <mxGeometry x="50" y="90" width="120" height="60" as="geometry" />
        </mxCell>
        <mxCell id="z3XUsXF2Qn8Yz3vl9ZlV-10" style="edgeStyle=orthogonalEdgeStyle;rounded=0;orthogonalLoop=1;jettySize=auto;html=1;entryX=0.5;entryY=0;entryDx=0;entryDy=0;" edge="1" parent="1" source="z3XUsXF2Qn8Yz3vl9ZlV-2" target="z3XUsXF2Qn8Yz3vl9ZlV-5">
          <mxGeometry relative="1" as="geometry" />
        </mxCell>
        <mxCell id="z3XUsXF2Qn8Yz3vl9ZlV-2" value="User" style="rounded=1;whiteSpace=wrap;html=1;" vertex="1" parent="1">
          <mxGeometry x="50" y="180" width="120" height="60" as="geometry" />
        </mxCell>
        <mxCell id="z3XUsXF2Qn8Yz3vl9ZlV-9" style="edgeStyle=orthogonalEdgeStyle;rounded=0;orthogonalLoop=1;jettySize=auto;html=1;entryX=0.5;entryY=0;entryDx=0;entryDy=0;" edge="1" parent="1" source="z3XUsXF2Qn8Yz3vl9ZlV-3" target="z3XUsXF2Qn8Yz3vl9ZlV-5">
          <mxGeometry relative="1" as="geometry" />
        </mxCell>
        <mxCell id="z3XUsXF2Qn8Yz3vl9ZlV-3" value="User" style="rounded=1;whiteSpace=wrap;html=1;" vertex="1" parent="1">
          <mxGeometry x="50" y="300" width="120" height="60" as="geometry" />
        </mxCell>
        <mxCell id="z3XUsXF2Qn8Yz3vl9ZlV-4" value="..." style="text;html=1;strokeColor=none;fillColor=none;align=center;verticalAlign=middle;whiteSpace=wrap;rounded=0;rotation=-90;" vertex="1" parent="1">
          <mxGeometry x="90" y="260" width="40" height="20" as="geometry" />
        </mxCell>
        <mxCell id="z3XUsXF2Qn8Yz3vl9ZlV-15" style="edgeStyle=orthogonalEdgeStyle;rounded=0;orthogonalLoop=1;jettySize=auto;html=1;entryX=0;entryY=0.5;entryDx=0;entryDy=0;" edge="1" parent="1" source="z3XUsXF2Qn8Yz3vl9ZlV-5" target="z3XUsXF2Qn8Yz3vl9ZlV-11">
          <mxGeometry relative="1" as="geometry" />
        </mxCell>
        <mxCell id="z3XUsXF2Qn8Yz3vl9ZlV-16" style="edgeStyle=orthogonalEdgeStyle;rounded=0;orthogonalLoop=1;jettySize=auto;html=1;entryX=0;entryY=0.5;entryDx=0;entryDy=0;" edge="1" parent="1" source="z3XUsXF2Qn8Yz3vl9ZlV-5" target="z3XUsXF2Qn8Yz3vl9ZlV-12">
          <mxGeometry relative="1" as="geometry" />
        </mxCell>
        <mxCell id="z3XUsXF2Qn8Yz3vl9ZlV-17" style="edgeStyle=orthogonalEdgeStyle;rounded=0;orthogonalLoop=1;jettySize=auto;html=1;entryX=0;entryY=0.5;entryDx=0;entryDy=0;" edge="1" parent="1" source="z3XUsXF2Qn8Yz3vl9ZlV-5" target="z3XUsXF2Qn8Yz3vl9ZlV-13">
          <mxGeometry relative="1" as="geometry" />
        </mxCell>
        <mxCell id="z3XUsXF2Qn8Yz3vl9ZlV-5" value="LB" style="rounded=1;whiteSpace=wrap;html=1;rotation=-90;" vertex="1" parent="1">
          <mxGeometry x="125" y="195" width="270" height="60" as="geometry" />
        </mxCell>
        <mxCell id="z3XUsXF2Qn8Yz3vl9ZlV-11" value="Web Server" style="rounded=1;whiteSpace=wrap;html=1;" vertex="1" parent="1">
          <mxGeometry x="340" y="90" width="120" height="60" as="geometry" />
        </mxCell>
        <mxCell id="z3XUsXF2Qn8Yz3vl9ZlV-12" value="Web Server" style="rounded=1;whiteSpace=wrap;html=1;" vertex="1" parent="1">
          <mxGeometry x="340" y="180" width="120" height="60" as="geometry" />
        </mxCell>
        <mxCell id="z3XUsXF2Qn8Yz3vl9ZlV-13" value="Web Server" style="rounded=1;whiteSpace=wrap;html=1;" vertex="1" parent="1">
          <mxGeometry x="340" y="300" width="120" height="60" as="geometry" />
        </mxCell>
        <mxCell id="z3XUsXF2Qn8Yz3vl9ZlV-14" value="..." style="text;html=1;strokeColor=none;fillColor=none;align=center;verticalAlign=middle;whiteSpace=wrap;rounded=0;rotation=-90;" vertex="1" parent="1">
          <mxGeometry x="380" y="260" width="40" height="20" as="geometry" />
        </mxCell>
      </root>
    </mxGraphModel>
  </diagram>
</mxfile>
